<svg width="24" height="24" viewBox="0 0 24 24" fill="none" xmlns="http://www.w3.org/2000/svg">
<g id="Iconly/Bold/Document">
<g id="Document">
<path id="Document_2" fill-rule="evenodd" clip-rule="evenodd" d="M7.81049 2H16.1915C19.2805 2 21.0005 3.78 21.0005 6.83V17.16C21.0005 20.26 19.2805 22 16.1915 22H7.81049C4.77049 22 3.00049 20.26 3.00049 17.16V6.83C3.00049 3.78 4.77049 2 7.81049 2ZM8.08044 6.66006V6.65006H11.0694C11.5004 6.65006 11.8504 7.00006 11.8504 7.42906C11.8504 7.87006 11.5004 8.22006 11.0694 8.22006H8.08044C7.64944 8.22006 7.30044 7.87006 7.30044 7.44006C7.30044 7.01006 7.64944 6.66006 8.08044 6.66006ZM8.08044 12.7401H15.9204C16.3504 12.7401 16.7004 12.3901 16.7004 11.9601C16.7004 11.5301 16.3504 11.1791 15.9204 11.1791H8.08044C7.64944 11.1791 7.30044 11.5301 7.30044 11.9601C7.30044 12.3901 7.64944 12.7401 8.08044 12.7401ZM8.08046 17.31H15.9205C16.3195 17.27 16.6205 16.929 16.6205 16.53C16.6205 16.12 16.3195 15.78 15.9205 15.74H8.08046C7.78046 15.71 7.49046 15.85 7.33046 16.11C7.17046 16.36 7.17046 16.69 7.33046 16.95C7.49046 17.2 7.78046 17.35 8.08046 17.31Z" fill="#4DBCFE"/>
</g>
</g>
</svg>
